<?xml version="1.0" encoding="UTF-8"?>
<!DOCTYPE svg PUBLIC "-//W3C//DTD SVG 1.1//EN" "http://www.w3.org/Graphics/SVG/1.1/DTD/svg11.dtd">
<svg xmlns="http://www.w3.org/2000/svg" version="1.1" width="1023px" height="180px" style="shape-rendering:geometricPrecision; text-rendering:geometricPrecision; image-rendering:optimizeQuality; fill-rule:evenodd; clip-rule:evenodd" xmlns:xlink="http://www.w3.org/1999/xlink">
<g><path style="opacity:0.954" fill="#2d812b" d="M 83.5,10.5 C 121.726,7.27295 149.559,22.6063 167,56.5C 175.822,77.4536 175.656,98.287 166.5,119C 163.118,119.824 159.784,119.657 156.5,118.5C 170.253,85.7579 163.919,57.5912 137.5,34C 109.5,14.6667 81.5,14.6667 53.5,34C 27.2085,58.0046 20.8751,86.5046 34.5,119.5C 30.8936,119.789 27.3936,119.456 24,118.5C 11.3365,82.9879 18.8365,52.4879 46.5,27C 57.6974,18.7302 70.0307,13.2302 83.5,10.5 Z"/></g>
<g><path style="opacity:0.963" fill="#49c34e" d="M 94.5,26.5 C 99.7908,29.7908 104.124,34.1241 107.5,39.5C 100.848,46.6523 94.0147,53.6523 87,60.5C 86.8333,63 88,64.1667 90.5,64C 97.3477,56.9853 104.348,50.152 111.5,43.5C 125.43,57.0485 128.263,72.7152 120,90.5C 115.107,98.5637 108.94,105.564 101.5,111.5C 100.667,129.491 100.167,147.491 100,165.5C 97.1451,169.064 94.1451,169.064 91,165.5C 90.833,147.491 90.333,129.491 89.5,111.5C 87.3102,109.476 84.9768,107.643 82.5,106C 89.6667,98.8333 96.8333,91.6667 104,84.5C 105.254,80.8886 104.088,79.3886 100.5,80C 93.3333,87.1667 86.1667,94.3333 79,101.5C 65.1838,86.4663 62.8505,69.7997 72,51.5C 78.9669,42.6991 86.4669,34.3658 94.5,26.5 Z"/></g>
<g><path style="opacity:0.963" fill="#2d812b" d="M 198.5,70.5 C 205.574,70.161 212.574,70.661 219.5,72C 226.435,76.5502 228.268,82.7169 225,90.5C 220.428,95.8922 214.594,97.8922 207.5,96.5C 207.5,100.167 207.5,103.833 207.5,107.5C 204.167,107.5 200.833,107.5 197.5,107.5C 197.187,95.0867 197.521,82.7533 198.5,70.5 Z M 207.5,80.5 C 210.187,80.3359 212.854,80.5026 215.5,81C 216.935,83.2672 216.602,85.2672 214.5,87C 212.19,87.4966 209.857,87.6633 207.5,87.5C 207.5,85.1667 207.5,82.8333 207.5,80.5 Z"/></g>
<g><path style="opacity:0.953" fill="#2d812b" d="M 228.5,70.5 C 237.839,70.3335 247.173,70.5002 256.5,71C 257.451,74.0567 257.784,77.2234 257.5,80.5C 254.167,80.5 250.833,80.5 247.5,80.5C 247.5,89.5 247.5,98.5 247.5,107.5C 244.167,107.5 240.833,107.5 237.5,107.5C 237.5,98.5 237.5,89.5 237.5,80.5C 234.5,80.5 231.5,80.5 228.5,80.5C 228.5,77.1667 228.5,73.8333 228.5,70.5 Z"/></g>
<g><path style="opacity:0.953" fill="#2d812b" d="M 293.5,70.5 C 299.072,69.9896 304.405,70.8229 309.5,73C 310.687,74.0195 311.687,75.1861 312.5,76.5C 310.851,78.6499 309.018,80.6499 307,82.5C 303.922,80.069 300.422,79.069 296.5,79.5C 296.33,80.8221 296.663,81.9887 297.5,83C 303.338,84.1671 308.171,87.0004 312,91.5C 314.651,102.209 310.317,107.876 299,108.5C 293.019,108.425 288.186,106.092 284.5,101.5C 286.167,99.1667 288.167,97.1667 290.5,95.5C 294.641,99.4145 298.974,99.9145 303.5,97C 302.953,96.0754 302.287,95.2421 301.5,94.5C 295.846,93.2575 291.012,90.5908 287,86.5C 284.198,79.0621 286.364,73.7287 293.5,70.5 Z"/></g>
<g><path style="opacity:0.927" fill="#2d812b" d="M 317.5,70.5 C 326.167,70.5 334.833,70.5 343.5,70.5C 343.784,73.7766 343.451,76.9433 342.5,80C 337.177,80.4994 331.844,80.666 326.5,80.5C 326.5,81.8333 326.5,83.1667 326.5,84.5C 330.846,84.3343 335.179,84.501 339.5,85C 340.833,87.6667 340.833,90.3333 339.5,93C 335.179,93.499 330.846,93.6657 326.5,93.5C 326.5,95.1667 326.5,96.8333 326.5,98.5C 332.176,98.3339 337.843,98.5006 343.5,99C 344.444,101.719 344.777,104.552 344.5,107.5C 335.167,107.5 325.833,107.5 316.5,107.5C 316.187,95.0867 316.521,82.7533 317.5,70.5 Z"/></g>
<g><path style="opacity:0.965" fill="#2d812b" d="M 357.5,70.5 C 360.777,70.2161 363.943,70.5495 367,71.5C 367.667,80.8333 367.667,90.1667 367,99.5C 364.158,107.173 358.658,110.006 350.5,108C 348.187,107.359 346.52,106.026 345.5,104C 346.818,102.01 348.152,100.01 349.5,98C 352.026,98.6317 354.526,98.4651 357,97.5C 357.5,88.5062 357.666,79.5062 357.5,70.5 Z"/></g>
<g><path style="opacity:0.954" fill="#2d812b" d="M 382.5,70.5 C 386.007,69.9935 389.174,70.6602 392,72.5C 396.473,84.088 400.64,95.7547 404.5,107.5C 401.102,107.82 397.768,107.487 394.5,106.5C 393.754,105.264 393.421,103.93 393.5,102.5C 389.154,102.334 384.821,102.501 380.5,103C 379.833,104.333 379.167,105.667 378.5,107C 375.118,107.824 371.784,107.657 368.5,106.5C 373.369,94.555 378.036,82.555 382.5,70.5 Z M 386.5,84.5 C 388.072,87.2154 389.072,90.2154 389.5,93.5C 387.473,93.6621 385.473,93.4955 383.5,93C 384.798,90.2731 385.798,87.4398 386.5,84.5 Z"/></g>
<g><path style="opacity:0.979" fill="#2d812b" d="M 408.5,70.5 C 411.5,70.5 414.5,70.5 417.5,70.5C 417.5,74.8333 417.5,79.1667 417.5,83.5C 421.833,83.5 426.167,83.5 430.5,83.5C 430.5,79.1667 430.5,74.8333 430.5,70.5C 433.777,70.2161 436.943,70.5495 440,71.5C 440.5,83.4954 440.667,95.4954 440.5,107.5C 437.167,107.5 433.833,107.5 430.5,107.5C 430.5,102.833 430.5,98.1667 430.5,93.5C 426.167,93.5 421.833,93.5 417.5,93.5C 417.5,98.1667 417.5,102.833 417.5,107.5C 414.167,107.5 410.833,107.5 407.5,107.5C 407.187,95.0867 407.521,82.7533 408.5,70.5 Z"/></g>
<g><path style="opacity:0.953" fill="#2d812b" d="M 444.5,70.5 C 453.839,70.3335 463.173,70.5002 472.5,71C 473.451,74.0567 473.784,77.2234 473.5,80.5C 470.167,80.5 466.833,80.5 463.5,80.5C 463.5,89.5 463.5,98.5 463.5,107.5C 460.167,107.5 456.833,107.5 453.5,107.5C 453.5,98.5 453.5,89.5 453.5,80.5C 450.5,80.5 447.5,80.5 444.5,80.5C 444.5,77.1667 444.5,73.8333 444.5,70.5 Z"/></g>
<g><path style="opacity:0.927" fill="#2d812b" d="M 478.5,70.5 C 487.167,70.5 495.833,70.5 504.5,70.5C 504.784,73.7766 504.451,76.9433 503.5,80C 498.177,80.4994 492.844,80.666 487.5,80.5C 487.5,81.8333 487.5,83.1667 487.5,84.5C 491.846,84.3343 496.179,84.501 500.5,85C 501.833,87.6667 501.833,90.3333 500.5,93C 496.179,93.499 491.846,93.6657 487.5,93.5C 487.5,95.1667 487.5,96.8333 487.5,98.5C 493.176,98.3339 498.843,98.5006 504.5,99C 505.444,101.719 505.777,104.552 505.5,107.5C 496.167,107.5 486.833,107.5 477.5,107.5C 477.187,95.0867 477.521,82.7533 478.5,70.5 Z"/></g>
<g><path style="opacity:0.954" fill="#2d812b" d="M 510.5,70.5 C 516.509,70.3338 522.509,70.5005 528.5,71C 537.27,73.7024 540.437,79.5357 538,88.5C 536.878,90.6238 535.378,92.4571 533.5,94C 535.794,98.088 537.961,102.255 540,106.5C 545.118,94.9886 549.951,83.3219 554.5,71.5C 557.106,70.3483 559.773,70.1816 562.5,71C 568.046,82.7997 572.712,94.9663 576.5,107.5C 573.102,107.82 569.768,107.487 566.5,106.5C 565.754,105.264 565.421,103.93 565.5,102.5C 561.154,102.334 556.821,102.501 552.5,103C 551.833,104.333 551.167,105.667 550.5,107C 543.5,107.667 536.5,107.667 529.5,107C 527.706,103.912 526.039,100.746 524.5,97.5C 522.955,96.5481 521.288,96.2148 519.5,96.5C 519.5,100.167 519.5,103.833 519.5,107.5C 516.167,107.5 512.833,107.5 509.5,107.5C 509.187,95.0867 509.521,82.7533 510.5,70.5 Z M 519.5,79.5 C 521.857,79.3367 524.19,79.5034 526.5,80C 528.673,81.8647 529.007,84.0314 527.5,86.5C 524.914,87.48 522.247,87.8134 519.5,87.5C 519.5,84.8333 519.5,82.1667 519.5,79.5 Z M 558.5,84.5 C 560.072,87.2154 561.072,90.2154 561.5,93.5C 559.473,93.6621 557.473,93.4955 555.5,93C 556.798,90.2731 557.798,87.4398 558.5,84.5 Z"/></g>
<g><path style="opacity:0.953" fill="#2d812b" d="M 590.5,70.5 C 599.839,70.3335 609.173,70.5002 618.5,71C 619.451,74.0567 619.784,77.2234 619.5,80.5C 616.167,80.5 612.833,80.5 609.5,80.5C 609.5,89.5 609.5,98.5 609.5,107.5C 606.167,107.5 602.833,107.5 599.5,107.5C 599.5,98.5 599.5,89.5 599.5,80.5C 596.5,80.5 593.5,80.5 590.5,80.5C 590.5,77.1667 590.5,73.8333 590.5,70.5 Z"/></g>
<g><path style="opacity:0.954" fill="#2d812b" d="M 629.5,70.5 C 633.007,69.9935 636.174,70.6602 639,72.5C 643.473,84.088 647.64,95.7547 651.5,107.5C 648.102,107.82 644.768,107.487 641.5,106.5C 640.754,105.264 640.421,103.93 640.5,102.5C 636.154,102.334 631.821,102.501 627.5,103C 626.833,104.333 626.167,105.667 625.5,107C 622.118,107.824 618.784,107.657 615.5,106.5C 620.369,94.555 625.036,82.555 629.5,70.5 Z M 633.5,84.5 C 635.072,87.2154 636.072,90.2154 636.5,93.5C 634.473,93.6621 632.473,93.4955 630.5,93C 631.798,90.2731 632.798,87.4398 633.5,84.5 Z"/></g>
<g><path style="opacity:0.942" fill="#2d812b" d="M 656.5,70.5 C 659.518,70.3354 662.518,70.502 665.5,71C 669.79,77.0803 673.957,83.2469 678,89.5C 678.333,83.5 678.667,77.5 679,71.5C 682,70.1667 685,70.1667 688,71.5C 688.5,83.4954 688.667,95.4954 688.5,107.5C 685.15,107.665 681.817,107.498 678.5,107C 673.959,100.755 669.792,94.2545 666,87.5C 665.5,94.1583 665.334,100.825 665.5,107.5C 662.167,107.5 658.833,107.5 655.5,107.5C 655.187,95.0867 655.521,82.7533 656.5,70.5 Z"/></g>
<g><path style="opacity:0.977" fill="#2d812b" d="M 694.5,70.5 C 697.5,70.5 700.5,70.5 703.5,70.5C 703.5,82.8333 703.5,95.1667 703.5,107.5C 700.167,107.5 696.833,107.5 693.5,107.5C 693.187,95.0867 693.521,82.7533 694.5,70.5 Z"/></g>
<g><path style="opacity:0.977" fill="#2d812b" d="M 724.5,70.5 C 727.5,70.5 730.5,70.5 733.5,70.5C 733.5,82.8333 733.5,95.1667 733.5,107.5C 730.167,107.5 726.833,107.5 723.5,107.5C 723.187,95.0867 723.521,82.7533 724.5,70.5 Z"/></g>
<g><path style="opacity:0.942" fill="#2d812b" d="M 740.5,70.5 C 743.518,70.3354 746.518,70.502 749.5,71C 753.79,77.0803 757.957,83.2469 762,89.5C 762.333,83.5 762.667,77.5 763,71.5C 766,70.1667 769,70.1667 772,71.5C 772.5,83.4954 772.667,95.4954 772.5,107.5C 769.15,107.665 765.817,107.498 762.5,107C 757.959,100.755 753.792,94.2545 750,87.5C 749.5,94.1583 749.334,100.825 749.5,107.5C 746.167,107.5 742.833,107.5 739.5,107.5C 739.187,95.0867 739.521,82.7533 740.5,70.5 Z"/></g>
<g><path style="opacity:0.97" fill="#2d812b" d="M 779.5,70.5 C 787.337,69.968 795.003,70.8013 802.5,73C 811.903,79.4437 814.403,87.9437 810,98.5C 807.404,102.39 803.904,105.223 799.5,107C 792.508,107.5 785.508,107.666 778.5,107.5C 778.187,95.0867 778.521,82.7533 779.5,70.5 Z M 788.5,80.5 C 800.793,79.9266 804.46,85.0932 799.5,96C 796.13,98.0778 792.463,98.9111 788.5,98.5C 788.5,92.5 788.5,86.5 788.5,80.5 Z"/></g>
<g><path style="opacity:0.968" fill="#2d812b" d="M 828.5,70.5 C 843.043,68.9161 851.376,75.2494 853.5,89.5C 851.458,103.374 843.458,109.541 829.5,108C 817.264,103.638 812.764,95.1376 816,82.5C 818.769,76.8947 822.936,72.8947 828.5,70.5 Z M 832.5,79.5 C 841.631,80.7878 844.798,85.7878 842,94.5C 838.95,98.1303 835.117,99.297 830.5,98C 825.845,95.1034 824.345,90.9367 826,85.5C 827.436,82.5581 829.603,80.5581 832.5,79.5 Z"/></g>
<g><path style="opacity:0.942" fill="#2d812b" d="M 858.5,70.5 C 861.518,70.3354 864.518,70.502 867.5,71C 871.79,77.0803 875.957,83.2469 880,89.5C 880.333,83.5 880.667,77.5 881,71.5C 884,70.1667 887,70.1667 890,71.5C 890.5,83.4954 890.667,95.4954 890.5,107.5C 887.15,107.665 883.817,107.498 880.5,107C 875.959,100.755 871.792,94.2545 868,87.5C 867.5,94.1583 867.334,100.825 867.5,107.5C 864.167,107.5 860.833,107.5 857.5,107.5C 857.187,95.0867 857.521,82.7533 858.5,70.5 Z"/></g>
<g><path style="opacity:0.927" fill="#2d812b" d="M 897.5,70.5 C 906.167,70.5 914.833,70.5 923.5,70.5C 923.784,73.7766 923.451,76.9433 922.5,80C 917.177,80.4994 911.844,80.666 906.5,80.5C 906.5,81.8333 906.5,83.1667 906.5,84.5C 910.846,84.3343 915.179,84.501 919.5,85C 920.833,87.6667 920.833,90.3333 919.5,93C 915.179,93.499 910.846,93.6657 906.5,93.5C 906.5,95.1667 906.5,96.8333 906.5,98.5C 912.176,98.3339 917.843,98.5006 923.5,99C 924.444,101.719 924.777,104.552 924.5,107.5C 915.167,107.5 905.833,107.5 896.5,107.5C 896.187,95.0867 896.521,82.7533 897.5,70.5 Z"/></g>
<g><path style="opacity:0.953" fill="#2d812b" d="M 935.5,70.5 C 941.072,69.9896 946.405,70.8229 951.5,73C 952.687,74.0195 953.687,75.1861 954.5,76.5C 952.851,78.6499 951.018,80.6499 949,82.5C 945.922,80.069 942.422,79.069 938.5,79.5C 938.33,80.8221 938.663,81.9887 939.5,83C 945.338,84.1671 950.171,87.0004 954,91.5C 956.651,102.209 952.317,107.876 941,108.5C 935.019,108.425 930.186,106.092 926.5,101.5C 928.167,99.1667 930.167,97.1667 932.5,95.5C 936.641,99.4145 940.974,99.9145 945.5,97C 944.953,96.0754 944.287,95.2421 943.5,94.5C 937.846,93.2575 933.012,90.5908 929,86.5C 926.198,79.0621 928.364,73.7287 935.5,70.5 Z"/></g>
<g><path style="opacity:0.977" fill="#2d812b" d="M 960.5,70.5 C 963.5,70.5 966.5,70.5 969.5,70.5C 969.5,82.8333 969.5,95.1667 969.5,107.5C 966.167,107.5 962.833,107.5 959.5,107.5C 959.187,95.0867 959.521,82.7533 960.5,70.5 Z"/></g>
<g><path style="opacity:0.954" fill="#2d812b" d="M 986.5,70.5 C 990.007,69.9935 993.174,70.6602 996,72.5C 1000.47,84.088 1004.64,95.7547 1008.5,107.5C 1005.1,107.82 1001.77,107.487 998.5,106.5C 997.754,105.264 997.421,103.93 997.5,102.5C 993.154,102.334 988.821,102.501 984.5,103C 983.833,104.333 983.167,105.667 982.5,107C 979.118,107.824 975.784,107.657 972.5,106.5C 977.369,94.555 982.036,82.555 986.5,70.5 Z M 990.5,84.5 C 992.072,87.2154 993.072,90.2154 993.5,93.5C 991.473,93.6621 989.473,93.4955 987.5,93C 988.798,90.2731 989.798,87.4398 990.5,84.5 Z"/></g>
<g><path style="opacity:0.948" fill="#49c24e" d="M 49.5,94.5 C 66.7776,95.7231 78.6109,104.39 85,120.5C 85.8209,128.332 82.3209,131.165 74.5,129C 59.4417,122.433 51.1084,110.933 49.5,94.5 Z"/></g>
<g><path style="opacity:0.945" fill="#49c34e" d="M 135.5,94.5 C 137.5,94.5 139.5,94.5 141.5,94.5C 140.046,113.122 130.379,124.789 112.5,129.5C 107.178,129.348 105.011,126.681 106,121.5C 111.248,107.416 121.081,98.416 135.5,94.5 Z"/></g>
<g><path style="opacity:0.868" fill="#2d812b" d="M 260.5,98.5 C 263.119,98.2317 265.619,98.565 268,99.5C 268.497,102.146 268.664,104.813 268.5,107.5C 265.167,107.5 261.833,107.5 258.5,107.5C 258.091,104.145 258.758,101.145 260.5,98.5 Z"/></g>
<g><path style="opacity:0.982" fill="#2d812b" d="M 30.5,123.5 C 52.8653,121.557 71.032,129.223 85,146.5C 88.5614,151.133 89.5614,156.133 88,161.5C 85.3363,164.39 82.0029,165.724 78,165.5C 56.9555,162.805 41.9555,151.805 33,132.5C 31.8551,129.568 31.0218,126.568 30.5,123.5 Z"/></g>
<g><path style="opacity:0.982" fill="#2d812b" d="M 143.5,123.5 C 149.537,123.171 155.537,123.504 161.5,124.5C 154.073,148.264 138.073,161.931 113.5,165.5C 107.116,165.78 103.449,162.78 102.5,156.5C 105.996,145.829 112.663,137.662 122.5,132C 129.342,128.45 136.342,125.616 143.5,123.5 Z"/></g>
</svg>
